<?xml version="1.0" encoding="UTF-8"?>
<svg xmlns="http://www.w3.org/2000/svg" version="1.1" viewBox="0 0 24 24">
  <defs>
    <style>
      .cls-1 {
        fill: none;
        stroke: #3a3a3a;
        stroke-linecap: round;
        stroke-linejoin: round;
        stroke-width: 1.5px;
      }
    </style>
  </defs>
  <!-- Generator: Adobe Illustrator 28.7.3, SVG Export Plug-In . SVG Version: 1.2.0 Build 164)  -->
  <g>
    <g id="_레이어_1" data-name="레이어_1">
      <path class="cls-1" d="M7.2,10.9c-.6-1.1-2-1.5-3.1-.9-1.1.6-1.5,2-.9,3.1s2,1.5,3.1.9c.4-.2.7-.5.9-.9M7.2,10.9c.2.3.3.7.3,1.1s-.1.8-.3,1.1M7.2,10.9l9.6-5.3M7.2,13.1l9.6,5.3M16.8,18.4c-.6,1.1-.2,2.5.9,3.1,1.1.6,2.5.2,3.1-.9s.2-2.5-.9-3.1c-1.1-.6-2.5-.2-3.1.9h0ZM16.8,5.6c.6,1.1,1.9,1.5,3,.9,1.1-.6,1.5-1.9.9-3,0,0,0,0,0,0-.6-1.1-2-1.4-3.1-.8-1,.6-1.4,1.9-.9,3Z"/>
    </g>
  </g>
</svg>